HIERARCHY
ROOT hip
{
  OFFSET -28.2227 41.0666 143.801
  CHANNELS 6 Xposition Yposition Zposition Zrotation Xrotation Yrotation
  JOINT abdomen
  {
    OFFSET 0 6.09653 0.699602
    CHANNELS 3 Zrotation Xrotation Yrotation
    JOINT chest
    {
      OFFSET 0 2.49857 -0.699602
      CHANNELS 3 Zrotation Xrotation Yrotation
      JOINT lCollar
      {
        OFFSET 1.49915 11.2936 -1.69903
        CHANNELS 3 Zrotation Xrotation Yrotation
        JOINT lShldr
        {
          OFFSET 4.89721 -0.299833 0.799545
          CHANNELS 3 Zrotation Xrotation Yrotation
          JOINT lForeArm
          {
            OFFSET 12.4216 -1.19922 0.931564
            CHANNELS 3 Zrotation Xrotation Yrotation
            JOINT lHand
            {
              OFFSET 9.86568 0.0998482 3.66582
              CHANNELS 3 Zrotation Xrotation Yrotation
              JOINT lRing1
              {
                OFFSET 3.39806 0.399773 0.299829
                CHANNELS 3 Zrotation Xrotation Yrotation
                JOINT lRing2
                {
                  OFFSET 1.29926 -0.199886 0.399772
                  CHANNELS 3 Zrotation Xrotation Yrotation
                  End Site
                  {
                    OFFSET 0.899489 -0.0999425 0.199886
                  }
                }
              }
              JOINT lThumb1
              {
                OFFSET 0.399772 -0.399773 1.19932
                CHANNELS 3 Zrotation Xrotation Yrotation
                JOINT lThumb2
                {
                  OFFSET 0.99813 0 1.47145
                  CHANNELS 3 Zrotation Xrotation Yrotation
                  End Site
                  {
                    OFFSET 0.97784 -0.27884 0.829828
                  }
                }
              }
              JOINT lMid1
              {
                OFFSET 2.99829 0.499714 1.09937
                CHANNELS 3 Zrotation Xrotation Yrotation
                JOINT lMid2
                {
                  OFFSET 1.45827 -0.0999388 0.600149
                  CHANNELS 3 Zrotation Xrotation Yrotation
                  End Site
                  {
                    OFFSET 1.04031 -0.0999473 0.399282
                  }
                }
              }
              JOINT lIndex1
              {
                OFFSET 2.69846 0.399775 2.09881
                CHANNELS 3 Zrotation Xrotation Yrotation
                JOINT lIndex2
                {
                  OFFSET 1.33823 -0.200884 0.6843
                  CHANNELS 3 Zrotation Xrotation Yrotation
                  End Site
                  {
                    OFFSET 0.760567 0.00099574 0.415074
                  }
                }
              }
              JOINT lPinky1
              {
                OFFSET 3.29812 0.0999421 -0.399772
                CHANNELS 3 Zrotation Xrotation Yrotation
                JOINT lPinky2
                {
                  OFFSET 0.899488 -0.0999427 0
                  CHANNELS 3 Zrotation Xrotation Yrotation
                  End Site
                  {
                    OFFSET 0.999427 -0.0999418 0
                  }
                }
              }
            }
          }
        }
      }
      JOINT rCollar
      {
        OFFSET -1.49915 11.2936 -1.69903
        CHANNELS 3 Zrotation Xrotation Yrotation
        JOINT rShldr
        {
          OFFSET -4.89721 -0.299829 0.799545
          CHANNELS 3 Zrotation Xrotation Yrotation
          JOINT rForeArm
          {
            OFFSET -12.4216 -1.19922 0.931564
            CHANNELS 3 Zrotation Xrotation Yrotation
            JOINT rHand
            {
              OFFSET -9.86568 0.0998477 3.66582
              CHANNELS 3 Zrotation Xrotation Yrotation
              JOINT rPinky1
              {
                OFFSET -3.29812 0.0999423 -0.399772
                CHANNELS 3 Zrotation Xrotation Yrotation
                JOINT rPinky2
                {
                  OFFSET -0.899492 -0.0999405 0
                  CHANNELS 3 Zrotation Xrotation Yrotation
                  End Site
                  {
                    OFFSET -0.999429 -0.0999421 0
                  }
                }
              }
              JOINT rRing1
              {
                OFFSET -3.39807 0.399775 0.299829
                CHANNELS 3 Zrotation Xrotation Yrotation
                JOINT rRing2
                {
                  OFFSET -1.29926 -0.199888 0.399772
                  CHANNELS 3 Zrotation Xrotation Yrotation
                  End Site
                  {
                    OFFSET -0.899487 -0.0999402 0.199886
                  }
                }
              }
              JOINT rMid1
              {
                OFFSET -2.99829 0.499717 1.09937
                CHANNELS 3 Zrotation Xrotation Yrotation
                JOINT rMid2
                {
                  OFFSET -1.45827 -0.0999391 0.600149
                  CHANNELS 3 Zrotation Xrotation Yrotation
                  End Site
                  {
                    OFFSET -1.0403 -0.0999474 0.399282
                  }
                }
              }
              JOINT rIndex1
              {
                OFFSET -2.69847 0.399775 2.09881
                CHANNELS 3 Zrotation Xrotation Yrotation
                JOINT rIndex2
                {
                  OFFSET -1.33823 -0.200883 0.6843
                  CHANNELS 3 Zrotation Xrotation Yrotation
                  End Site
                  {
                    OFFSET -0.760569 0.00099747 0.415074
                  }
                }
              }
              JOINT rThumb1
              {
                OFFSET -0.399773 -0.39977 1.19932
                CHANNELS 3 Zrotation Xrotation Yrotation
                JOINT rThumb2
                {
                  OFFSET -0.998132 0 1.47145
                  CHANNELS 3 Zrotation Xrotation Yrotation
                  End Site
                  {
                    OFFSET -0.977841 -0.278837 0.829828
                  }
                }
              }
            }
          }
        }
      }
      JOINT neck
      {
        OFFSET 0 12.4929 -0.499715
        CHANNELS 3 Zrotation Xrotation Yrotation
        JOINT head
        {
          OFFSET 0 3.59795 0.299829
          CHANNELS 3 Zrotation Xrotation Yrotation
          JOINT rightEye
          {
            OFFSET -1.19932 3.69789 3.19818
            CHANNELS 3 Zrotation Xrotation Yrotation
            End Site
            {
              OFFSET 0 0 0
            }
          }
          JOINT leftEye
          {
            OFFSET 1.19932 3.69789 3.19818
            CHANNELS 3 Zrotation Xrotation Yrotation
            End Site
            {
              OFFSET 0 0 0
            }
          }
        }
      }
    }
  }
  JOINT rButtock
  {
    OFFSET -4.19761 -0.599656 -0.299829
    CHANNELS 3 Zrotation Xrotation Yrotation
    JOINT rThigh
    {
      OFFSET 0 -1.49915 0
      CHANNELS 3 Zrotation Xrotation Yrotation
      JOINT rShin
      {
        OFFSET 0.699602 -17.6899 -1.09938
        CHANNELS 3 Zrotation Xrotation Yrotation
        JOINT rFoot
        {
          OFFSET -0.699602 -18.0897 -0.699602
          CHANNELS 3 Zrotation Xrotation Yrotation
          End Site
          {
            OFFSET 0 -2.09881 5.59681
          }
        }
      }
    }
  }
  JOINT lButtock
  {
    OFFSET 4.19761 -0.599656 -0.299829
    CHANNELS 3 Zrotation Xrotation Yrotation
    JOINT lThigh
    {
      OFFSET 0 -1.49914 0
      CHANNELS 3 Zrotation Xrotation Yrotation
      JOINT lShin
      {
        OFFSET -0.699602 -17.6899 -1.09937
        CHANNELS 3 Zrotation Xrotation Yrotation
        JOINT lFoot
        {
          OFFSET 0.699602 -18.0897 -0.699602
          CHANNELS 3 Zrotation Xrotation Yrotation
          End Site
          {
            OFFSET 0 -2.0988 5.59681
          }
        }
      }
    }
  }
}
MOTION
Frames:	4
Frame Time:	0.0333333
-28.2227 41.0666 143.801 -3.72865 -16.0302 3.97312 -0.00975517 -0.00975351 -0.00975351 -0.00109739 0.0354623 1.20438 -6.44794 0.544442 1.29028 -63.4652 42.8058 10.4492 22.5836 25.9953 -31.286 -20.9058 7.14097 3.22296 -0.011828 -0.0109821 -0.00813738 -2.42855 -0.502369 -4.43241 4.42559e-005 -0.0456281 -0.00980762 9.41156 -7.94154 0.625637 -0.0134437 -0.00969969 -0.00912502 0.204764 0.414792 -1.45043 -0.0140808 -0.0101059 -0.00835251 -8.62306 -0.0231752 1.79819 -0.00991999 -0.0110122 -0.00833245 -0.629806 -0.00995832 0.0010087 27.0637 0.349511 -6.09254 54.8471 29.7356 -9.86971 -22.8474 29.2574 28.3827 18.5945 6.51083 -2.3528 -0.00964467 -0.00830612 -0.0110374 0.629524 -0.00953166 -0.000952604 -0.00762335 -0.00787027 -0.0111471 2.42704 -0.497593 4.4329 -0.00609458 -0.00836157 -0.0103548 -0.219775 0.404223 1.44943 -0.00535787 -0.0071651 -0.0109553 8.61171 -0.00190224 -1.79828 4.33991e-005 -0.0456274 -0.00979263 -9.39785 -7.91692 -0.6638 4.31268 -0.0987538 -1.2048 2.99559 18.9849 2.49192 0 0 0 0 0 0 -0.00975517 -0.00969887 -0.00983547 8.09936 4.8009 -10.4193 0.301487 20.4923 -1.9197 -4.96122 -10.4415 0.143592 -0.00975517 -0.00983547 -0.00969887 17.2203 -1.27367 -8.0368 -0.427311 21.955 2.24981 -9.33996 -5.79541 -0.337851 
-28.2169 41.0168 143.815 -3.76873 -16.5102 3.7861 -0.00975517 -0.00975351 -0.00975351 -0.0011409 0.0354617 1.2513 -6.58181 0.549971 1.34395 -63.7611 42.733 10.9859 22.7242 25.9737 -31.4716 -20.9655 7.20467 3.02513 -0.011828 -0.0109821 -0.00813738 -2.42855 -0.502369 -4.43241 4.42559e-005 -0.0456281 -0.00980762 9.41156 -7.94154 0.625637 -0.0134437 -0.00969969 -0.00912502 0.204764 0.414792 -1.45043 -0.0140808 -0.0101059 -0.00835251 -8.62306 -0.0231752 1.79819 -0.00991999 -0.0110122 -0.00833245 -0.629806 -0.00995832 0.0010087 26.9977 0.300445 -6.27764 54.895 28.7322 -10.0308 -23.6977 30.2726 28.4648 19.5 7.0683 -1.20432 -0.00964467 -0.00830612 -0.0110374 0.629524 -0.00953166 -0.000952604 -0.00762335 -0.00787027 -0.0111471 2.42704 -0.497593 4.4329 -0.00609458 -0.00836157 -0.0103548 -0.219775 0.404223 1.44943 -0.00535787 -0.0071651 -0.0109553 8.61171 -0.00190224 -1.79828 4.33991e-005 -0.0456274 -0.00979263 -9.39785 -7.91692 -0.6638 4.33525 -0.102719 -1.25099 3.14034 19.9516 3.98539 0 0 0 0 0 0 -0.00975517 -0.00969887 -0.00983547 8.00287 4.68389 -9.95526 0.461986 21.4841 -2.39153 -4.91516 -10.8109 0.144464 -0.00975517 -0.00983547 -0.00969887 17.0455 -1.59792 -9.18467 -0.864343 23.7291 3.4022 -8.30433 -6.76265 -0.433838 
-28.21 40.9953 143.844 -3.83884 -16.9902 3.57317 -0.00975517 -0.00975351 -0.00975351 -0.00119536 0.0354609 1.31413 -6.61814 0.548521 1.39928 -64.0522 42.68 11.4399 23.2478 26.6521 -31.3825 -21.2088 7.35271 2.74161 -0.011828 -0.0109821 -0.00813738 -2.42855 -0.502369 -4.43241 4.42559e-005 -0.0456281 -0.00980762 9.41156 -7.94154 0.625637 -0.0134437 -0.00969969 -0.00912502 0.204764 0.414792 -1.45043 -0.0140808 -0.0101059 -0.00835251 -8.62306 -0.0231752 1.79819 -0.00991999 -0.0110122 -0.00833245 -0.629806 -0.00995832 0.0010087 27.0321 0.251128 -6.47514 55.0076 28.8232 -10.3104 -24.0588 30.6189 28.5787 19.6855 7.18355 -0.977912 -0.00964467 -0.00830612 -0.0110374 0.629524 -0.00953166 -0.000952604 -0.00762335 -0.00787027 -0.0111471 2.42704 -0.497593 4.4329 -0.00609458 -0.00836157 -0.0103548 -0.219775 0.404223 1.44943 -0.00535787 -0.0071651 -0.0109553 8.61171 -0.00190224 -1.79828 4.33991e-005 -0.0456274 -0.00979263 -9.39785 -7.91692 -0.6638 4.40916 -0.109062 -1.31296 3.06723 20.7431 4.84873 0 0 0 0 0 0 -0.00975517 -0.00969887 -0.00983547 8.0757 5.11932 -9.70935 0.507445 21.7444 -2.53757 -4.90104 -11.0097 0.144439 -0.00975517 -0.00983547 -0.00969887 17.0735 -1.19412 -9.49776 -0.995834 24.1813 3.79791 -8.30963 -7.10165 -0.472071 
-28.2146 40.9783 143.87 -3.94892 -17.38 3.33714 -0.00975517 -0.00975351 -0.00975351 -0.00124658 0.03546 1.37009 -6.64184 0.550775 1.39071 -64.3519 42.7271 11.9012 23.826 27.3827 -31.3181 -21.4587 7.50532 2.4552 -0.011828 -0.0109821 -0.00813738 -2.42855 -0.502369 -4.43241 4.42559e-005 -0.0456281 -0.00980762 9.41156 -7.94154 0.625637 -0.0134437 -0.00969969 -0.00912502 0.204764 0.414792 -1.45043 -0.0140808 -0.0101059 -0.00835251 -8.62306 -0.0231752 1.79819 -0.00991999 -0.0110122 -0.00833245 -0.629806 -0.00995832 0.0010087 27.0632 0.199762 -6.67987 55.0839 29.2044 -10.5428 -23.8825 30.5264 28.4565 19.527 7.09591 -1.11782 -0.00964467 -0.00830612 -0.0110374 0.629524 -0.00953166 -0.000952604 -0.00762335 -0.00787027 -0.0111471 2.42704 -0.497593 4.4329 -0.00609458 -0.00836157 -0.0103548 -0.219775 0.404223 1.44943 -0.00535787 -0.0071651 -0.0109553 8.61172 -0.00190224 -1.79828 4.33991e-005 -0.0456274 -0.00979263 -9.39785 -7.91692 -0.6638 4.48169 -0.115056 -1.36838 2.85541 21.4102 5.71361 0 0 0 0 0 0 -0.00975517 -0.00969887 -0.00983547 8.1946 5.49541 -9.49148 0.534014 21.8906 -2.62763 -4.9027 -11.1266 0.14386 -0.00975517 -0.00983547 -0.00969887 17.225 -0.88263 -9.50831 -1.09849 24.5204 4.10773 -8.2835 -7.28319 -0.491831 
